<?xml version="1.0" encoding="utf-8"?>
<!-- Generator: Adobe Illustrator 26.2.1, SVG Export Plug-In . SVG Version: 6.00 Build 0)  -->
<svg version="1.1" xmlns="http://www.w3.org/2000/svg" xmlns:xlink="http://www.w3.org/1999/xlink" x="0px" y="0px"
	 viewBox="0 0 191.2 37.6" style="enable-background:new 0 0 191.2 37.6;" xml:space="preserve">
<style type="text/css">
	.st0{display:none;}
	.st1{display:inline;}
	.st2{fill:#4741FF;}
	.st3{fill:#FFFFFF;}
	.st4{fill:#041A58;}
	.st5{display:inline;fill:#FFFFFF;}
	.st6{display:inline;fill:#233E93;}
</style>
<g id="Layer_3" class="st0">
	<text transform="matrix(1 0 0 1 51.7244 -41.5665)" class="st1"><tspan x="0" y="0" class="st3" style="font-family:'Nunito-SemiBold'; font-size:23.4315px; letter-spacing:-1;">W</tspan><tspan x="24.8" y="0" class="st3" style="font-family:'Nunito-SemiBold'; font-size:23.4315px;">y</tspan><tspan x="37.7" y="0" class="st3" style="font-family:'Nunito-SemiBold'; font-size:23.4315px; letter-spacing:1;">z</tspan><tspan x="50.1" y="0" class="st3" style="font-family:'Nunito-SemiBold'; font-size:23.4315px;">t</tspan><tspan x="59.4" y="0" class="st3" style="font-family:'Nunito-SemiBold'; font-size:23.4315px; letter-spacing:-2;">h</tspan><tspan x="70" y="0" class="st3" style="font-family:'Nunito-SemiBold'; font-size:23.4315px;"> </tspan><tspan x="76.2" y="0" class="st3" style="font-family:'Nunito-SemiBold'; font-size:23.4315px;">B</tspan><tspan x="91.3" y="0" class="st3" style="font-family:'Nunito-SemiBold'; font-size:23.4315px;">r</tspan><tspan x="100.5" y="0" class="st3" style="font-family:'Nunito-SemiBold'; font-size:23.4315px;">i</tspan><tspan x="106.2" y="0" class="st3" style="font-family:'Nunito-SemiBold'; font-size:23.4315px;">dg</tspan><tspan x="133" y="0" class="st3" style="font-family:'Nunito-SemiBold'; font-size:23.4315px; letter-spacing:2;">e</tspan></text>
	<g class="st1">
		<path id="Path_4643_00000172404628960629219230000002458208747605603753_" class="st2" d="M-15.5-27h-23.5
			c-5.7,0-10.3-4.6-10.3-10.3l0,0v-23.5c0-5.7,4.6-10.3,10.3-10.3l0,0h23.5c5.7,0,10.3,4.6,10.3,10.3l0,0v23.5
			C-5.2-31.6-9.8-27-15.5-27L-15.5-27"/>
		<g>
			<path id="Path_4644_00000050642385429115868880000007522159086127275674_" class="st3" d="M-30.3-33.9c-0.1,0-0.1,0-0.2,0
				c-0.2-0.1-0.3-0.3-0.3-0.5v-13.7l-6.9,6.6c-0.2,0.2-0.5,0.2-0.7,0c-0.2-0.2-0.2-0.5,0-0.7l0,0l7.4-7l-7.4-7.4
				c-0.2-0.2-0.2-0.5,0-0.7s0.5-0.2,0.7,0l0,0l6.9,6.9v-13.1c0-0.3,0.2-0.5,0.5-0.5c0.1,0,0.3,0.1,0.4,0.2l7.3,7.4
				c0.2,0.2,0.2,0.5,0,0.7c0,0,0,0,0,0l-6.9,6.6l7,7c0.2,0.2,0.2,0.5,0,0.7l-7.3,7.5C-30-34-30.2-33.9-30.3-33.9 M-29.8-48v12.3
				l6.1-6.2L-29.8-48z M-29.8-62.4v11.9l6-5.8L-29.8-62.4z"/>
			<path id="Path_4645_00000042708391016781053030000017812272823996897425_" class="st3" d="M-38-44.7c-0.2,0-0.3-0.2-0.3-0.3
				c0,0,0,0,0,0v-9.6c0-0.2,0.2-0.3,0.3-0.3c0.1,0,0.2,0,0.3,0.1l4.1,5c0.1,0.1,0.1,0.3,0,0.5l-4.2,4.6
				C-37.9-44.7-37.9-44.7-38-44.7 M-37.7-53.6v7.7l3.3-3.7L-37.7-53.6z"/>
			<path class="st3" d="M-19.9-48.5C-19.9-48.5-20-48.5-19.9-48.5c-0.4,0.2-0.8,0.3-1.1,0.4c0,0,0,0-0.1,0c0,0,0-0.1,0-0.1
				c0-1.6,0-3.2,0-4.9c0-0.1,0-0.1-0.1-0.1c-0.3,0-0.6,0-0.8,0c-0.1,0-0.2,0-0.2,0.2c0,1.6,0,3.2,0,4.8c0,0,0,0.1,0,0.1
				c0,0-0.1,0-0.1,0c-0.4-0.1-0.7-0.3-1.1-0.4c0,0-0.1,0-0.1,0c-0.1,0-0.1,0.1-0.1,0.1c0,0,0,0,0,0.1c0.6,0.7,1.1,1.5,1.7,2.2h0l0,0
				c0,0,0,0,0,0c0,0,0,0,0,0l0.1,0.1l0.1-0.1c0,0,0,0,0,0c0,0,0,0,0,0l0,0l0,0c0.6-0.8,1.2-1.5,1.7-2.3c0,0,0,0,0-0.1
				C-19.8-48.4-19.8-48.5-19.9-48.5z"/>
			<path class="st3" d="M-19.5-50.5C-19.5-50.5-19.5-50.6-19.5-50.5c0.4-0.2,0.8-0.3,1.1-0.4c0,0,0,0,0.1,0c0,0,0,0.1,0,0.1
				c0,1.6,0,3.2,0,4.9c0,0.1,0,0.1,0.1,0.1c0.3,0,0.6,0,0.8,0c0.1,0,0.2,0,0.2-0.2c0-1.6,0-3.2,0-4.8c0,0,0-0.1,0-0.1
				c0,0,0.1,0,0.1,0c0.4,0.1,0.7,0.3,1.1,0.4c0,0,0.1,0,0.1,0c0.1,0,0.1-0.1,0.1-0.1c0,0,0,0,0-0.1c-0.6-0.7-1.1-1.5-1.7-2.2h0l0,0
				c0,0,0,0,0,0c0,0,0,0,0,0l-0.1-0.1l-0.1,0.1c0,0,0,0,0,0c0,0,0,0,0,0l0,0l0,0c-0.6,0.8-1.2,1.5-1.7,2.3c0,0,0,0,0,0.1
				C-19.6-50.6-19.6-50.5-19.5-50.5z"/>
		</g>
	</g>
	<g class="st1">
		<path class="st4" d="M-24,34.1h-17c-4.2,0-7.5-3.3-7.5-7.5v-17c0-4.2,3.3-7.5,7.5-7.5h17.1c4.1,0,7.4,3.3,7.4,7.5v17.1
			C-16.5,30.8-19.8,34.1-24,34.1z"/>
		<g>
			<g>
				<path class="st3" d="M-35,29.1L-35,29.1c-0.2-0.1-0.3-0.2-0.3-0.3v-9.9l-5,4.8c-0.1,0.1-0.4,0.1-0.5,0c-0.1-0.2-0.1-0.4,0-0.5
					l5.3-5.1l-5.4-5.4c-0.1-0.1-0.1-0.4,0-0.5c0.1-0.1,0.4-0.1,0.5,0l5,5V7.5c0-0.2,0.1-0.3,0.2-0.3c0.1-0.1,0.3,0,0.4,0.1l5.3,5.4
					c0.1,0.1,0.1,0.2,0.1,0.3s0,0.2-0.1,0.3l-5,4.8l5.1,5.1c0.1,0.1,0.1,0.4,0,0.5l-5.3,5.4C-34.8,29.1-34.9,29.1-35,29.1z
					 M-34.6,18.8v9l4.4-4.5L-34.6,18.8z M-34.6,8.4V17l4.4-4.2L-34.6,8.4z"/>
			</g>
			<g>
				<path class="st3" d="M-40.6,21.3C-40.7,21.3-40.7,21.3-40.6,21.3c-0.2-0.1-0.3-0.1-0.3-0.3v-7c0-0.1,0.1-0.2,0.2-0.2
					c0.1,0,0.2,0,0.3,0.1l3,3.6c0.1,0.1,0.1,0.2,0,0.3l-3,3.3C-40.5,21.3-40.6,21.3-40.6,21.3z M-40.4,14.8v5.6l2.4-2.7L-40.4,14.8z
					"/>
			</g>
			<g>
				<path class="st3" d="M-24,16.1v-0.3l-1.2,0.5l-2.5-1l-2.6,1v3.1l2.5,1.1L-24,19v-0.3l-3.7,1.5v-0.7L-24,18v-0.3l-3.7,1.5v-0.7
					l3.7-1.4v-0.3l-3.7,1.5v-0.7L-24,16.1z M-27.9,20.2l-2.2-0.9v-2.7l2.2,0.9V20.2z"/>
			</g>
		</g>
	</g>
	<path class="st5" d="M35.8-57.6c-1.9-5.8-7.2-9.7-13.6-9.7C14.4-67.3,8-60.9,8-53.1c0,6.6,4.5,12.3,10.9,13.8
		c1.9,5.8,7.2,9.7,13.6,9.7c7.8,0,14.2-6.4,14.2-14.2C46.7-50.6,42-56.2,35.8-57.6z M12.1-53.3c0-5.6,4.5-10.1,10.1-10.1
		c3.9,0,7.2,2.1,8.8,5.3c-7.2,0.6-13,6.6-13,14C14.6-45.7,12.1-49.2,12.1-53.3z M32.5-33.7c-3.9,0-7.2-2.1-8.8-5.3
		c7.2-0.6,13-6.6,13-14c3.5,1.6,6,5.1,6,9.3C42.6-38.3,38.1-33.7,32.5-33.7z"/>
</g>
<g id="Layer_6">
	<g>
		<g>
			<path class="st3" d="M51.3,25.9c-0.8,0-1.3-0.4-1.6-1.3l-4.9-13.8c-0.2-0.5-0.1-0.9,0.1-1.3S45.5,9,46.1,9c0.4,0,0.8,0.1,1,0.3
				s0.4,0.5,0.6,0.9l3.7,11.2l3.9-11.1C55.6,9.4,56.1,9,56.8,9c0.4,0,0.7,0.1,0.9,0.3s0.4,0.5,0.6,1l3.9,11.3L66,10.2
				c0.1-0.4,0.3-0.7,0.6-0.9s0.6-0.3,1-0.3c0.5,0,0.9,0.2,1.1,0.5s0.3,0.8,0.1,1.3l-4.9,13.9c-0.2,0.4-0.4,0.7-0.6,0.9
				c-0.2,0.2-0.6,0.3-1,0.3s-0.8-0.1-1-0.3c-0.2-0.2-0.5-0.5-0.6-1l-3.8-10.8l-3.8,10.9c-0.2,0.4-0.4,0.7-0.6,0.9
				C52.1,25.8,51.7,25.9,51.3,25.9z"/>
			<path class="st3" d="M73.1,30.1c-0.5,0-0.9-0.2-1.1-0.6s-0.2-0.8,0-1.3l1.3-3l-4-9.2c-0.2-0.5-0.2-1,0-1.4
				c0.2-0.4,0.6-0.6,1.3-0.6c0.4,0,0.6,0.1,0.9,0.2s0.4,0.5,0.6,0.9l2.8,7l2.9-7.1c0.2-0.4,0.4-0.7,0.6-0.9s0.5-0.2,0.9-0.2
				c0.5,0,0.9,0.2,1.1,0.6c0.2,0.4,0.2,0.8,0,1.3l-5.7,13c-0.2,0.4-0.4,0.7-0.7,0.9S73.4,30.1,73.1,30.1z"/>
			<path class="st3" d="M84,25.7c-0.4,0-0.7-0.1-0.9-0.4s-0.3-0.6-0.3-0.9s0.2-0.7,0.5-1l5.5-6.9h-5c-0.8,0-1.1-0.4-1.1-1.1
				s0.4-1.1,1.1-1.1h6.9c0.5,0,0.8,0.1,1,0.4c0.2,0.2,0.3,0.6,0.3,0.9s-0.2,0.7-0.5,1l-5.6,7h5.2c0.8,0,1.1,0.4,1.1,1.1
				s-0.4,1.1-1.1,1.1H84z"/>
			<path class="st3" d="M101,25.9c-3,0-4.5-1.5-4.5-4.5v-5h-1.2c-0.8,0-1.2-0.4-1.2-1.1s0.4-1.1,1.2-1.1h1.2v-2.1
				c0-1,0.5-1.5,1.5-1.5c1,0,1.5,0.5,1.5,1.5v2.1h2.5c0.8,0,1.2,0.4,1.2,1.1s-0.4,1.1-1.2,1.1h-2.5v4.8c0,0.8,0.2,1.3,0.5,1.7
				s0.9,0.6,1.6,0.6c0.3,0,0.5,0,0.7-0.1c0.2,0,0.4-0.1,0.5-0.1c0.2,0,0.3,0,0.5,0.2s0.2,0.4,0.2,0.8c0,0.3-0.1,0.6-0.2,0.8
				c-0.1,0.2-0.3,0.4-0.5,0.5c-0.2,0.1-0.5,0.1-0.8,0.2S101.3,25.9,101,25.9z"/>
			<path class="st3" d="M106.9,25.9c-1,0-1.5-0.5-1.5-1.5V10.5c0-1,0.5-1.5,1.5-1.5c1,0,1.5,0.5,1.5,1.5v5.4
				c0.4-0.6,0.9-1.1,1.6-1.4c0.7-0.3,1.4-0.5,2.2-0.5c2.7,0,4.1,1.6,4.1,4.7v5.7c0,1-0.5,1.5-1.5,1.5c-1,0-1.5-0.5-1.5-1.5v-5.5
				c0-0.9-0.2-1.5-0.5-1.9c-0.3-0.4-0.9-0.6-1.6-0.6c-0.9,0-1.5,0.3-2,0.8c-0.5,0.5-0.8,1.3-0.8,2.1v5.1
				C108.4,25.4,107.9,25.9,106.9,25.9z"/>
			<path class="st3" d="M124.6,25.7c-1.1,0-1.6-0.5-1.6-1.6V10.8c0-1.1,0.5-1.6,1.6-1.6h5.6c1.7,0,3.1,0.4,4,1.1
				c1,0.8,1.4,1.8,1.4,3.2c0,0.9-0.2,1.7-0.7,2.3s-1.1,1.1-1.9,1.4c0.9,0.3,1.7,0.7,2.2,1.4s0.8,1.5,0.8,2.5c0,1.5-0.5,2.6-1.5,3.4
				s-2.4,1.2-4.1,1.2H124.6z M125.8,16.2h3.8c2,0,3.1-0.8,3.1-2.4c0-1.6-1-2.4-3.1-2.4h-3.8V16.2z M125.8,23.4h4.2
				c2.1,0,3.1-0.8,3.1-2.5c0-1.7-1-2.5-3.1-2.5h-4.2V23.4z"/>
			<path class="st3" d="M139.4,25.9c-1,0-1.5-0.5-1.5-1.5v-8.9c0-1,0.5-1.5,1.4-1.5s1.4,0.5,1.4,1.5v0.7c0.6-1.3,1.8-2.1,3.6-2.2
				c0.7-0.1,1,0.3,1.1,1.1c0.1,0.8-0.3,1.3-1.2,1.4l-0.5,0c-1.9,0.2-2.9,1.2-2.9,3v4.9C140.8,25.4,140.4,25.9,139.4,25.9z"/>
			<path class="st3" d="M149,11.9c-0.5,0-1-0.1-1.3-0.4c-0.3-0.3-0.5-0.7-0.5-1.1c0-0.5,0.2-0.9,0.5-1.1c0.3-0.3,0.7-0.4,1.3-0.4
				c1.2,0,1.7,0.5,1.7,1.5C150.7,11.4,150.1,11.9,149,11.9z M149,25.9c-0.5,0-0.8-0.1-1.1-0.4c-0.3-0.3-0.4-0.7-0.4-1.2v-8.6
				c0-1.1,0.5-1.6,1.5-1.6c1,0,1.5,0.5,1.5,1.6v8.6c0,0.5-0.1,0.9-0.4,1.2S149.5,25.9,149,25.9z"/>
			<path class="st3" d="M157.9,25.9c-1,0-1.9-0.2-2.6-0.7c-0.8-0.5-1.3-1.2-1.8-2.1c-0.4-0.9-0.6-2-0.6-3.2c0-1.2,0.2-2.3,0.6-3.2
				c0.4-0.9,1-1.6,1.8-2.1c0.8-0.5,1.6-0.7,2.6-0.7c0.8,0,1.5,0.2,2.2,0.5s1.1,0.8,1.5,1.4v-5.5c0-1,0.5-1.5,1.5-1.5
				c1,0,1.5,0.5,1.5,1.5v13.9c0,1-0.5,1.5-1.5,1.5s-1.5-0.5-1.5-1.5v-0.5c-0.3,0.6-0.8,1.1-1.5,1.5
				C159.5,25.7,158.7,25.9,157.9,25.9z M158.7,23.7c0.9,0,1.6-0.3,2.1-0.9c0.5-0.6,0.8-1.6,0.8-2.8c0-1.2-0.3-2.2-0.8-2.8
				c-0.5-0.6-1.2-0.9-2.1-0.9s-1.6,0.3-2.1,0.9c-0.5,0.6-0.8,1.6-0.8,2.8c0,1.2,0.3,2.2,0.8,2.8C157.1,23.4,157.8,23.7,158.7,23.7z"
				/>
			<path class="st3" d="M172.4,30.1c-0.8,0-1.7-0.1-2.4-0.2c-0.8-0.2-1.5-0.4-2.1-0.7c-0.4-0.2-0.6-0.4-0.7-0.7
				c-0.1-0.3,0-0.6,0.1-0.8c0.1-0.3,0.3-0.5,0.6-0.6s0.5-0.1,0.8,0c0.7,0.3,1.3,0.6,2,0.7c0.6,0.1,1.1,0.2,1.6,0.2
				c2.1,0,3.1-1,3.1-3v-1.6c-0.3,0.6-0.8,1.1-1.5,1.5c-0.7,0.4-1.4,0.6-2.3,0.6c-1,0-1.9-0.2-2.7-0.7s-1.4-1.1-1.8-2
				c-0.4-0.9-0.6-1.9-0.6-3s0.2-2.1,0.6-3c0.4-0.9,1-1.5,1.8-2s1.7-0.7,2.7-0.7c0.8,0,1.6,0.2,2.2,0.5c0.7,0.4,1.2,0.9,1.5,1.5v-0.5
				c0-0.5,0.1-0.9,0.4-1.1c0.3-0.2,0.6-0.4,1.1-0.4c1,0,1.5,0.5,1.5,1.5v9c0,1.9-0.5,3.3-1.5,4.2C175.7,29.7,174.3,30.1,172.4,30.1z
				 M172.4,23.2c0.9,0,1.6-0.3,2.2-0.9c0.5-0.6,0.8-1.5,0.8-2.6s-0.3-1.9-0.8-2.5c-0.5-0.6-1.2-0.9-2.2-0.9s-1.6,0.3-2.2,0.9
				c-0.5,0.6-0.8,1.5-0.8,2.5s0.3,1.9,0.8,2.6C170.7,22.9,171.5,23.2,172.4,23.2z"/>
			<path class="st3" d="M186.4,25.9c-1.3,0-2.4-0.2-3.4-0.7c-0.9-0.5-1.7-1.2-2.2-2.1c-0.5-0.9-0.8-1.9-0.8-3.2
				c0-1.2,0.2-2.2,0.7-3.1c0.5-0.9,1.2-1.6,2-2.1c0.9-0.5,1.9-0.8,3-0.8c1.6,0,2.9,0.5,3.9,1.5s1.4,2.4,1.4,4.2
				c0,0.6-0.4,0.9-1.1,0.9H183c0.2,2,1.4,3.1,3.5,3.1c0.4,0,0.9-0.1,1.4-0.2c0.5-0.1,1-0.3,1.4-0.5c0.4-0.2,0.8-0.3,1-0.2
				s0.5,0.3,0.6,0.5s0.1,0.5,0,0.8s-0.3,0.6-0.7,0.8c-0.5,0.3-1.2,0.6-1.9,0.8C187.7,25.8,187,25.9,186.4,25.9z M186,16
				c-0.9,0-1.6,0.3-2.1,0.8c-0.5,0.5-0.9,1.2-1,2.2h5.8c-0.1-1-0.3-1.7-0.8-2.2C187.5,16.2,186.8,16,186,16z"/>
		</g>
		<path class="st3" d="M27.8,9.7C25.9,3.9,20.6,0,14.2,0C6.4,0,0,6.4,0,14.2C0,20.8,4.5,26.5,10.9,28c1.9,5.8,7.2,9.7,13.6,9.7
			c7.8,0,14.2-6.4,14.2-14.2C38.7,16.7,33.9,11.1,27.8,9.7z M4.1,14c0-5.6,4.5-10.1,10.1-10.1c3.9,0,7.2,2.1,8.8,5.3
			c-7.2,0.6-13,6.6-13,14C6.6,21.6,4.1,18.1,4.1,14z M24.5,33.5c-3.9,0-7.2-2.1-8.8-5.3c7.2-0.6,13-6.6,13-14c3.5,1.6,6,5.1,6,9.3
			C34.6,29,30,33.5,24.5,33.5z"/>
	</g>
</g>
<g id="Layer_4" class="st0">
	<g class="st1">
		<g>
			<g>
				<path d="M43.7-38.7c-0.5,0-0.8-0.3-1-0.8l-3.6-10.3c-0.1-0.3-0.1-0.5,0.1-0.7c0.1-0.2,0.4-0.3,0.7-0.3c0.2,0,0.4,0.1,0.6,0.2
					c0.1,0.1,0.2,0.3,0.3,0.5l3,8.7l3-8.7c0.2-0.5,0.5-0.7,0.9-0.7c0.2,0,0.4,0.1,0.5,0.2c0.1,0.1,0.2,0.3,0.3,0.6l3,8.8l3-8.8
					c0.1-0.2,0.2-0.4,0.3-0.5c0.1-0.1,0.3-0.2,0.6-0.2c0.3,0,0.5,0.1,0.6,0.3c0.1,0.2,0.2,0.4,0,0.7l-3.6,10.3
					c-0.1,0.2-0.2,0.4-0.4,0.6c-0.1,0.1-0.3,0.2-0.6,0.2c-0.3,0-0.5-0.1-0.6-0.2c-0.1-0.1-0.3-0.3-0.4-0.6l-3-8.5l-3,8.6
					c-0.1,0.2-0.2,0.4-0.3,0.6C44.2-38.7,44-38.7,43.7-38.7z"/>
				<path d="M59.2-35.7c-0.3,0-0.5-0.1-0.6-0.3c-0.1-0.2-0.1-0.5,0-0.8l1-2.2l-3-6.9c-0.1-0.3-0.1-0.6,0-0.8
					c0.1-0.2,0.4-0.4,0.8-0.4c0.2,0,0.4,0.1,0.5,0.2c0.1,0.1,0.2,0.3,0.3,0.5l2.3,5.7l2.3-5.7c0.1-0.3,0.2-0.4,0.4-0.5
					s0.3-0.1,0.6-0.1c0.3,0,0.5,0.1,0.6,0.4c0.1,0.2,0.1,0.5,0,0.8l-4.2,9.6c-0.1,0.3-0.2,0.4-0.4,0.5
					C59.7-35.7,59.5-35.7,59.2-35.7z"/>
				<path d="M66.9-38.8c-0.2,0-0.4-0.1-0.5-0.2c-0.1-0.1-0.2-0.3-0.2-0.5s0.1-0.4,0.3-0.6l4.2-5.5h-3.9c-0.4,0-0.7-0.2-0.7-0.7
					c0-0.4,0.2-0.7,0.7-0.7h5.1c0.3,0,0.5,0.1,0.6,0.2c0.1,0.1,0.2,0.3,0.2,0.5c0,0.2-0.1,0.4-0.3,0.6l-4.3,5.5h4.1
					c0.4,0,0.7,0.2,0.7,0.6c0,0.4-0.2,0.7-0.7,0.7H66.9z"/>
				<path d="M78.9-38.7c-1,0-1.8-0.3-2.3-0.8c-0.5-0.5-0.8-1.3-0.8-2.3v-4h-1c-0.5,0-0.7-0.2-0.7-0.7c0-0.4,0.2-0.7,0.7-0.7h1v-1.7
					c0-0.6,0.3-0.9,0.9-0.9c0.6,0,0.8,0.3,0.8,0.9v1.7h2c0.5,0,0.7,0.2,0.7,0.7c0,0.4-0.2,0.7-0.7,0.7h-2v3.8c0,0.6,0.1,1,0.4,1.3
					c0.3,0.3,0.7,0.5,1.2,0.5c0.2,0,0.4,0,0.5-0.1c0.1,0,0.3-0.1,0.4-0.1c0.1,0,0.2,0,0.3,0.1c0.1,0.1,0.1,0.2,0.1,0.5
					c0,0.2,0,0.3-0.1,0.5c-0.1,0.1-0.2,0.2-0.3,0.3c-0.1,0.1-0.3,0.1-0.5,0.1C79.3-38.7,79.1-38.7,78.9-38.7z"/>
				<path d="M82.9-38.7c-0.6,0-0.8-0.3-0.8-0.9v-10.3c0-0.6,0.3-0.9,0.8-0.9c0.6,0,0.9,0.3,0.9,0.9v4.2c0.3-0.5,0.7-0.8,1.1-1.1
					c0.5-0.2,1-0.4,1.6-0.4c1.9,0,2.9,1.1,2.9,3.3v4.3c0,0.6-0.3,0.9-0.8,0.9c-0.6,0-0.9-0.3-0.9-0.9v-4.2c0-0.7-0.1-1.2-0.4-1.5
					c-0.3-0.3-0.7-0.5-1.3-0.5c-0.7,0-1.2,0.2-1.6,0.6c-0.4,0.4-0.6,1-0.6,1.7v3.9C83.7-39,83.4-38.7,82.9-38.7z"/>
				<path d="M98.2-38.7c-0.8,0-1.5-0.1-2.2-0.3c-0.7-0.2-1.3-0.4-1.9-0.8c-0.2-0.1-0.3-0.3-0.4-0.5c0-0.2,0-0.4,0.1-0.6
					c0.1-0.2,0.2-0.3,0.4-0.4c0.2-0.1,0.4,0,0.6,0.1c0.5,0.3,1,0.6,1.6,0.7c0.6,0.2,1.2,0.2,1.8,0.2c0.9,0,1.7-0.2,2.1-0.5
					c0.5-0.3,0.7-0.8,0.7-1.3c0-0.4-0.2-0.8-0.5-1.1c-0.3-0.3-0.9-0.5-1.6-0.6L97.1-44c-1.1-0.2-1.9-0.6-2.4-1.1
					c-0.5-0.5-0.8-1.2-0.8-2.1c0-0.7,0.2-1.3,0.6-1.9c0.4-0.5,0.9-1,1.6-1.2c0.7-0.3,1.4-0.4,2.3-0.4c0.7,0,1.3,0.1,2,0.3
					c0.6,0.2,1.2,0.5,1.6,0.8c0.2,0.1,0.3,0.3,0.3,0.5c0,0.2,0,0.4-0.1,0.5c-0.1,0.2-0.2,0.3-0.4,0.3c-0.2,0.1-0.4,0-0.6-0.1
					c-0.4-0.3-0.9-0.5-1.3-0.6c-0.5-0.1-1-0.2-1.5-0.2c-0.8,0-1.5,0.2-2,0.6c-0.5,0.4-0.7,0.9-0.7,1.5c0,0.5,0.2,0.8,0.5,1.1
					c0.3,0.3,0.8,0.5,1.5,0.6l1.8,0.4c1.1,0.2,1.9,0.6,2.5,1.1c0.5,0.5,0.8,1.1,0.8,2c0,0.7-0.2,1.3-0.6,1.8
					c-0.4,0.5-0.9,0.9-1.6,1.2S99.2-38.7,98.2-38.7z"/>
				<path d="M107.7-38.7c-0.5,0-0.8-0.2-1-0.7l-2.5-6.5c-0.1-0.3-0.1-0.6,0-0.8c0.1-0.2,0.4-0.3,0.7-0.3c0.2,0,0.4,0,0.5,0.1
					c0.1,0.1,0.2,0.3,0.3,0.5l2,5.6l2.1-5.7c0.2-0.4,0.4-0.6,0.8-0.6c0.4,0,0.7,0.2,0.8,0.6l2,5.7l2-5.7c0.1-0.3,0.2-0.4,0.3-0.5
					c0.1-0.1,0.3-0.1,0.5-0.1c0.3,0,0.6,0.1,0.6,0.4c0.1,0.2,0.1,0.5,0,0.8l-2.5,6.5c-0.2,0.5-0.5,0.7-1,0.7c-0.5,0-0.8-0.2-1-0.7
					l-1.9-5.2l-1.9,5.2C108.6-38.9,108.2-38.7,107.7-38.7z"/>
				<path d="M123-38.7c-0.6,0-1.1-0.1-1.5-0.3c-0.4-0.2-0.8-0.5-1.1-0.9c-0.3-0.4-0.4-0.8-0.4-1.3c0-0.6,0.2-1.1,0.5-1.4
					c0.3-0.3,0.8-0.6,1.5-0.8c0.7-0.2,1.7-0.2,2.9-0.2h0.6V-44c0-0.6-0.1-1.1-0.4-1.4c-0.3-0.3-0.7-0.4-1.3-0.4
					c-0.4,0-0.7,0-1.1,0.1s-0.8,0.2-1.2,0.5c-0.2,0.1-0.4,0.1-0.6,0.1c-0.2-0.1-0.3-0.2-0.3-0.4c-0.1-0.2-0.1-0.3,0-0.5
					c0.1-0.2,0.2-0.3,0.4-0.4c0.5-0.2,1-0.4,1.5-0.5c0.5-0.1,0.9-0.2,1.4-0.2c1.1,0,1.9,0.3,2.5,0.8c0.5,0.5,0.8,1.4,0.8,2.5v4.3
					c0,0.6-0.3,0.9-0.8,0.9c-0.5,0-0.8-0.3-0.8-0.9v-0.6c-0.2,0.5-0.5,0.8-0.9,1.1S123.6-38.7,123-38.7z M123.4-39.9
					c0.6,0,1.1-0.2,1.5-0.6c0.4-0.4,0.6-1,0.6-1.6v-0.5h-0.6c-0.8,0-1.5,0-1.9,0.1c-0.5,0.1-0.8,0.2-1,0.4s-0.3,0.4-0.3,0.8
					c0,0.4,0.1,0.8,0.4,1C122.5-40,122.9-39.9,123.4-39.9z"/>
				<path d="M131.9-35.7c-0.6,0-0.8-0.3-0.8-0.9v-9.7c0-0.6,0.3-0.9,0.8-0.9c0.6,0,0.8,0.3,0.8,0.9v0.6c0.2-0.5,0.6-0.8,1.1-1.1
					c0.5-0.3,1-0.4,1.6-0.4c0.7,0,1.4,0.2,1.9,0.5c0.5,0.3,1,0.8,1.3,1.5c0.3,0.6,0.4,1.4,0.4,2.3c0,0.9-0.1,1.6-0.4,2.3
					c-0.3,0.6-0.7,1.1-1.3,1.5c-0.5,0.3-1.2,0.5-1.9,0.5c-0.6,0-1.1-0.1-1.6-0.4c-0.5-0.3-0.8-0.6-1.1-1.1v3.6
					C132.8-36,132.5-35.7,131.9-35.7z M135.1-40c0.7,0,1.3-0.3,1.7-0.8c0.4-0.5,0.6-1.2,0.6-2.2c0-0.9-0.2-1.7-0.6-2.2
					c-0.4-0.5-1-0.7-1.7-0.7s-1.3,0.2-1.7,0.7c-0.4,0.5-0.6,1.2-0.6,2.2c0,0.9,0.2,1.7,0.6,2.2C133.8-40.2,134.4-40,135.1-40z"/>
			</g>
			<g>
				<path d="M115.7-53.4c-0.3,0-0.5-0.2-0.5-0.5v-6.6c0-0.3,0.2-0.5,0.5-0.5h2.5c0.8,0,1.4,0.2,1.8,0.5c0.4,0.3,0.6,0.8,0.6,1.5
					c0,0.4-0.1,0.8-0.3,1.1c-0.2,0.3-0.5,0.5-0.9,0.6c0.4,0.1,0.8,0.3,1,0.6c0.2,0.3,0.4,0.7,0.4,1.2c0,0.7-0.2,1.2-0.7,1.5
					c-0.4,0.4-1.1,0.5-1.8,0.5H115.7z M116.1-57.6h2c1.1,0,1.7-0.4,1.7-1.3c0-0.9-0.6-1.3-1.7-1.3h-2V-57.6z M116.1-54.1h2.2
					c1.1,0,1.7-0.5,1.7-1.4s-0.6-1.4-1.7-1.4h-2.2V-54.1z"/>
				<path d="M125.8-53.3c-0.8,0-1.5-0.2-2-0.7c-0.5-0.5-0.7-1.1-0.7-2c0-0.5,0.1-1,0.3-1.4c0.2-0.4,0.5-0.7,0.9-1
					c0.4-0.2,0.8-0.3,1.3-0.3c0.7,0,1.3,0.2,1.7,0.7c0.4,0.5,0.6,1.1,0.6,1.9c0,0.2-0.1,0.3-0.4,0.3h-3.6c0,0.6,0.2,1,0.5,1.4
					c0.3,0.3,0.8,0.5,1.3,0.5c0.2,0,0.5,0,0.7-0.1c0.2-0.1,0.5-0.2,0.7-0.3c0.2-0.1,0.3-0.1,0.4-0.1c0.1,0.1,0.2,0.2,0.2,0.3
					s-0.1,0.2-0.2,0.3c-0.2,0.2-0.5,0.3-0.8,0.4C126.4-53.3,126.1-53.3,125.8-53.3z M125.6-58.1c-0.5,0-0.9,0.2-1.2,0.5
					c-0.3,0.3-0.5,0.7-0.5,1.2h3.2c0-0.5-0.2-0.9-0.4-1.2C126.4-57.9,126.1-58.1,125.6-58.1z"/>
				<path d="M132.3-53.3c-0.6,0-1.1-0.2-1.4-0.5c-0.3-0.3-0.5-0.8-0.5-1.4v-2.7h-0.7c-0.3,0-0.4-0.1-0.4-0.3c0-0.2,0.1-0.3,0.4-0.3
					h0.7v-1.2c0-0.3,0.1-0.4,0.4-0.4c0.3,0,0.4,0.1,0.4,0.4v1.2h1.4c0.3,0,0.4,0.1,0.4,0.3c0,0.2-0.1,0.3-0.4,0.3h-1.4v2.6
					c0,0.4,0.1,0.7,0.3,0.9c0.2,0.2,0.5,0.3,0.8,0.3c0.1,0,0.3,0,0.3,0c0.1,0,0.2,0,0.2,0c0.1,0,0.1,0,0.2,0.1
					c0,0.1,0.1,0.1,0.1,0.3c0,0.1,0,0.2,0,0.2c0,0.1-0.1,0.1-0.2,0.2c-0.1,0-0.2,0.1-0.3,0.1C132.5-53.3,132.4-53.3,132.3-53.3z"/>
				<path d="M136.7-53.3c-0.4,0-0.7-0.1-1-0.2c-0.3-0.1-0.5-0.3-0.7-0.6c-0.2-0.2-0.2-0.5-0.2-0.8c0-0.4,0.1-0.7,0.3-0.9
					c0.2-0.2,0.5-0.4,1-0.5c0.5-0.1,1.1-0.1,1.9-0.1h0.3v-0.3c0-0.4-0.1-0.8-0.3-1c-0.2-0.2-0.5-0.3-0.9-0.3c-0.3,0-0.5,0-0.8,0.1
					c-0.3,0.1-0.5,0.2-0.8,0.3c-0.1,0.1-0.2,0.1-0.3,0c-0.1,0-0.1-0.1-0.2-0.2c0-0.1,0-0.2,0-0.3c0-0.1,0.1-0.2,0.2-0.2
					c0.3-0.2,0.6-0.3,0.9-0.3c0.3-0.1,0.6-0.1,0.9-0.1c0.7,0,1.2,0.2,1.5,0.5c0.3,0.3,0.5,0.8,0.5,1.5v2.9c0,0.3-0.1,0.5-0.4,0.5
					c-0.3,0-0.4-0.2-0.4-0.5v-0.5c-0.1,0.3-0.3,0.6-0.6,0.7C137.4-53.4,137-53.3,136.7-53.3z M136.8-53.9c0.4,0,0.8-0.1,1.1-0.4
					c0.3-0.3,0.4-0.7,0.4-1.1v-0.3h-0.3c-0.6,0-1,0-1.4,0.1c-0.3,0.1-0.6,0.1-0.7,0.3c-0.1,0.1-0.2,0.3-0.2,0.5
					c0,0.3,0.1,0.5,0.3,0.7C136.2-54,136.5-53.9,136.8-53.9z"/>
			</g>
		</g>
		<g>
			<path id="Path_4644_00000078765119731627836160000011408793395983354030_" class="st2" d="M18.8-33.2c-0.1,0-0.1,0-0.2,0
				c-0.2-0.1-0.3-0.3-0.3-0.5v-13.6l-6.9,6.5c-0.2,0.2-0.5,0.2-0.7,0c-0.2-0.2-0.2-0.5,0-0.7l0,0l7.3-7L10.7-56
				c-0.2-0.2-0.2-0.5,0-0.7c0.2-0.2,0.5-0.2,0.7,0l0,0l6.9,6.9v-13.1c0-0.3,0.2-0.5,0.5-0.5c0.1,0,0.3,0.1,0.4,0.2l7.3,7.4
				c0.2,0.2,0.2,0.5,0,0.7c0,0,0,0,0,0l-6.9,6.6l6.9,7c0.2,0.2,0.2,0.5,0,0.7l-7.3,7.5C19.1-33.3,18.9-33.2,18.8-33.2 M19.3-47.3
				V-35l6.1-6.2L19.3-47.3z M19.3-61.6v11.9l6-5.7L19.3-61.6z"/>
			<path id="Path_4645_00000137120587309424456890000017804776043314216084_" class="st2" d="M11.1-43.9c-0.2,0-0.3-0.2-0.3-0.3
				c0,0,0,0,0,0v-9.6c0-0.2,0.2-0.3,0.3-0.3c0.1,0,0.2,0,0.3,0.1l4.1,5c0.1,0.1,0.1,0.3,0,0.5L11.3-44C11.2-44,11.1-43.9,11.1-43.9
				 M11.4-52.9v7.7l3.3-3.7L11.4-52.9z"/>
			<path class="st2" d="M29.2-47.8C29.1-47.8,29.1-47.8,29.2-47.8c-0.4,0.2-0.8,0.3-1.1,0.4c0,0,0,0-0.1,0c0,0,0-0.1,0-0.1
				c0-1.6,0-3.2,0-4.9c0-0.1,0-0.1-0.1-0.1c-0.3,0-0.6,0-0.8,0c-0.1,0-0.2,0-0.2,0.2c0,1.6,0,3.2,0,4.8c0,0,0,0.1,0,0.1
				c0,0-0.1,0-0.1,0c-0.4-0.1-0.7-0.3-1.1-0.4c0,0-0.1,0-0.1,0c-0.1,0-0.1,0.1-0.1,0.1c0,0,0,0,0,0.1c0.6,0.7,1.1,1.5,1.7,2.2h0l0,0
				c0,0,0,0,0,0c0,0,0,0,0,0l0.1,0.1l0.1-0.1c0,0,0,0,0,0c0,0,0,0,0,0l0,0l0,0c0.6-0.7,1.2-1.5,1.7-2.2c0,0,0,0,0-0.1
				C29.3-47.7,29.2-47.8,29.2-47.8z"/>
			<path class="st2" d="M29.6-49.8C29.6-49.8,29.6-49.8,29.6-49.8c0.4-0.2,0.8-0.3,1.1-0.4c0,0,0,0,0.1,0c0,0,0,0.1,0,0.1
				c0,1.6,0,3.2,0,4.9c0,0.1,0,0.1,0.1,0.1c0.3,0,0.6,0,0.8,0c0.1,0,0.2,0,0.2-0.2c0-1.6,0-3.2,0-4.8c0,0,0-0.1,0-0.1
				c0,0,0.1,0,0.1,0c0.4,0.1,0.7,0.3,1.1,0.4c0,0,0.1,0,0.1,0c0.1,0,0.1-0.1,0.1-0.1c0,0,0,0,0-0.1c-0.6-0.7-1.1-1.5-1.7-2.2h0l0,0
				c0,0,0,0,0,0c0,0,0,0,0,0l-0.1-0.1l-0.1,0.1c0,0,0,0,0,0c0,0,0,0,0,0l0,0l0,0c-0.6,0.7-1.2,1.5-1.7,2.2c0,0,0,0,0,0.1
				C29.4-49.9,29.5-49.8,29.6-49.8z"/>
		</g>
	</g>
</g>
<g id="Layer_5" class="st0">
	<g class="st1">
		<g>
			<g>
				<path class="st3" d="M43.7,14.4c-0.5,0-0.8-0.3-1-0.8L39.2,3.4c-0.1-0.3-0.1-0.5,0.1-0.7c0.1-0.2,0.4-0.3,0.7-0.3
					c0.2,0,0.4,0.1,0.6,0.2c0.1,0.1,0.2,0.3,0.3,0.5l3,8.7l3-8.7c0.2-0.5,0.5-0.7,0.9-0.7c0.2,0,0.4,0.1,0.5,0.2
					c0.1,0.1,0.2,0.3,0.3,0.6l3,8.8l3-8.8c0.1-0.2,0.2-0.4,0.3-0.5c0.1-0.1,0.3-0.2,0.6-0.2c0.3,0,0.5,0.1,0.6,0.3
					c0.1,0.2,0.2,0.4,0,0.7l-3.6,10.3c-0.1,0.2-0.2,0.4-0.4,0.6c-0.1,0.1-0.3,0.2-0.6,0.2c-0.3,0-0.5-0.1-0.6-0.2
					c-0.1-0.1-0.3-0.3-0.4-0.6l-3-8.5l-3,8.6c-0.1,0.2-0.2,0.4-0.3,0.6C44.2,14.4,44,14.4,43.7,14.4z"/>
				<path class="st3" d="M59.2,17.5c-0.3,0-0.5-0.1-0.6-0.3c-0.1-0.2-0.1-0.5,0-0.8l1-2.2l-3-6.9c-0.1-0.3-0.1-0.6,0-0.8
					S57,6,57.4,6c0.2,0,0.4,0.1,0.5,0.2c0.1,0.1,0.2,0.3,0.3,0.5l2.3,5.7l2.3-5.7c0.1-0.3,0.2-0.4,0.4-0.5C63.3,6.1,63.5,6,63.8,6
					c0.3,0,0.5,0.1,0.6,0.4s0.1,0.5,0,0.8l-4.2,9.6c-0.1,0.3-0.2,0.4-0.4,0.5C59.7,17.4,59.5,17.5,59.2,17.5z"/>
				<path class="st3" d="M66.9,14.3c-0.2,0-0.4-0.1-0.5-0.2c-0.1-0.1-0.2-0.3-0.2-0.5c0-0.2,0.1-0.4,0.3-0.6l4.2-5.5h-3.9
					c-0.4,0-0.7-0.2-0.7-0.7c0-0.4,0.2-0.7,0.7-0.7h5.1c0.3,0,0.5,0.1,0.6,0.2c0.1,0.1,0.2,0.3,0.2,0.5c0,0.2-0.1,0.4-0.3,0.6
					L68.1,13h4.1c0.4,0,0.7,0.2,0.7,0.6c0,0.4-0.2,0.7-0.7,0.7H66.9z"/>
				<path class="st3" d="M78.9,14.5c-1,0-1.8-0.3-2.3-0.8c-0.5-0.5-0.8-1.3-0.8-2.3v-4h-1c-0.5,0-0.7-0.2-0.7-0.7
					c0-0.4,0.2-0.7,0.7-0.7h1V4.4c0-0.6,0.3-0.9,0.9-0.9c0.6,0,0.8,0.3,0.8,0.9v1.7h2c0.5,0,0.7,0.2,0.7,0.7c0,0.4-0.2,0.7-0.7,0.7
					h-2v3.8c0,0.6,0.1,1,0.4,1.3c0.3,0.3,0.7,0.5,1.2,0.5c0.2,0,0.4,0,0.5-0.1c0.1,0,0.3-0.1,0.4-0.1c0.1,0,0.2,0,0.3,0.1
					s0.1,0.2,0.1,0.5c0,0.2,0,0.3-0.1,0.5c-0.1,0.1-0.2,0.2-0.3,0.3c-0.1,0.1-0.3,0.1-0.5,0.1C79.3,14.5,79.1,14.5,78.9,14.5z"/>
				<path class="st3" d="M82.9,14.4c-0.6,0-0.8-0.3-0.8-0.9V3.2c0-0.6,0.3-0.9,0.8-0.9c0.6,0,0.9,0.3,0.9,0.9v4.2
					c0.3-0.5,0.7-0.8,1.1-1.1c0.5-0.2,1-0.4,1.6-0.4c1.9,0,2.9,1.1,2.9,3.3v4.3c0,0.6-0.3,0.9-0.8,0.9c-0.6,0-0.9-0.3-0.9-0.9V9.4
					c0-0.7-0.1-1.2-0.4-1.5C87,7.5,86.6,7.3,86,7.3c-0.7,0-1.2,0.2-1.6,0.6c-0.4,0.4-0.6,1-0.6,1.7v3.9
					C83.7,14.2,83.4,14.4,82.9,14.4z"/>
				<path class="st3" d="M98.2,14.5c-0.8,0-1.5-0.1-2.2-0.3c-0.7-0.2-1.3-0.4-1.9-0.8c-0.2-0.1-0.3-0.3-0.4-0.5c0-0.2,0-0.4,0.1-0.6
					c0.1-0.2,0.2-0.3,0.4-0.4c0.2-0.1,0.4,0,0.6,0.1c0.5,0.3,1,0.6,1.6,0.7c0.6,0.2,1.2,0.2,1.8,0.2c0.9,0,1.7-0.2,2.1-0.5
					c0.5-0.3,0.7-0.8,0.7-1.3c0-0.4-0.2-0.8-0.5-1.1c-0.3-0.3-0.9-0.5-1.6-0.6l-1.8-0.4C96,8.9,95.2,8.5,94.7,8
					C94.2,7.5,94,6.8,94,5.9c0-0.7,0.2-1.3,0.6-1.9c0.4-0.5,0.9-1,1.6-1.2c0.7-0.3,1.4-0.4,2.3-0.4c0.7,0,1.3,0.1,2,0.3
					c0.6,0.2,1.2,0.5,1.6,0.8c0.2,0.1,0.3,0.3,0.3,0.5c0,0.2,0,0.4-0.1,0.5c-0.1,0.2-0.2,0.3-0.4,0.3c-0.2,0.1-0.4,0-0.6-0.1
					c-0.4-0.3-0.9-0.5-1.3-0.6c-0.5-0.1-1-0.2-1.5-0.2c-0.8,0-1.5,0.2-2,0.6c-0.5,0.4-0.7,0.9-0.7,1.5c0,0.5,0.2,0.8,0.5,1.1
					c0.3,0.3,0.8,0.5,1.5,0.6L99.4,8c1.1,0.2,1.9,0.6,2.5,1.1c0.5,0.5,0.8,1.1,0.8,2c0,0.7-0.2,1.3-0.6,1.8
					c-0.4,0.5-0.9,0.9-1.6,1.2C99.9,14.3,99.2,14.5,98.2,14.5z"/>
				<path class="st3" d="M107.7,14.4c-0.5,0-0.8-0.2-1-0.7l-2.5-6.5c-0.1-0.3-0.1-0.6,0-0.8c0.1-0.2,0.4-0.3,0.7-0.3
					c0.2,0,0.4,0,0.5,0.1c0.1,0.1,0.2,0.3,0.3,0.5l2,5.6l2.1-5.7c0.2-0.4,0.4-0.6,0.8-0.6c0.4,0,0.7,0.2,0.8,0.6l2,5.7l2-5.7
					c0.1-0.3,0.2-0.4,0.3-0.5c0.1-0.1,0.3-0.1,0.5-0.1c0.3,0,0.6,0.1,0.6,0.4s0.1,0.5,0,0.8l-2.5,6.5c-0.2,0.5-0.5,0.7-1,0.7
					c-0.5,0-0.8-0.2-1-0.7l-1.9-5.2l-1.9,5.2C108.6,14.2,108.2,14.4,107.7,14.4z"/>
				<path class="st3" d="M123,14.5c-0.6,0-1.1-0.1-1.5-0.3s-0.8-0.5-1.1-0.9c-0.3-0.4-0.4-0.8-0.4-1.3c0-0.6,0.2-1.1,0.5-1.4
					c0.3-0.3,0.8-0.6,1.5-0.8c0.7-0.2,1.7-0.2,2.9-0.2h0.6V9.1c0-0.6-0.1-1.1-0.4-1.4c-0.3-0.3-0.7-0.4-1.3-0.4
					c-0.4,0-0.7,0-1.1,0.1s-0.8,0.2-1.2,0.5C121.2,8,121,8,120.9,7.9c-0.2-0.1-0.3-0.2-0.3-0.4c-0.1-0.2-0.1-0.3,0-0.5
					c0.1-0.2,0.2-0.3,0.4-0.4c0.5-0.2,1-0.4,1.5-0.5c0.5-0.1,0.9-0.2,1.4-0.2c1.1,0,1.9,0.3,2.5,0.8c0.5,0.5,0.8,1.4,0.8,2.5v4.3
					c0,0.6-0.3,0.9-0.8,0.9c-0.5,0-0.8-0.3-0.8-0.9V13c-0.2,0.5-0.5,0.8-0.9,1.1S123.6,14.5,123,14.5z M123.4,13.3
					c0.6,0,1.1-0.2,1.5-0.6c0.4-0.4,0.6-1,0.6-1.6v-0.5h-0.6c-0.8,0-1.5,0-1.9,0.1c-0.5,0.1-0.8,0.2-1,0.4s-0.3,0.4-0.3,0.8
					c0,0.4,0.1,0.8,0.4,1C122.5,13.1,122.9,13.3,123.4,13.3z"/>
				<path class="st3" d="M131.9,17.5c-0.6,0-0.8-0.3-0.8-0.9V6.9c0-0.6,0.3-0.9,0.8-0.9c0.6,0,0.8,0.3,0.8,0.9v0.6
					c0.2-0.5,0.6-0.8,1.1-1.1c0.5-0.3,1-0.4,1.6-0.4c0.7,0,1.4,0.2,1.9,0.5c0.5,0.3,1,0.8,1.3,1.5c0.3,0.6,0.4,1.4,0.4,2.3
					c0,0.9-0.1,1.6-0.4,2.3c-0.3,0.6-0.7,1.1-1.3,1.5c-0.5,0.3-1.2,0.5-1.9,0.5c-0.6,0-1.1-0.1-1.6-0.4c-0.5-0.3-0.8-0.6-1.1-1.1
					v3.6C132.8,17.2,132.5,17.5,131.9,17.5z M135.1,13.2c0.7,0,1.3-0.3,1.7-0.8c0.4-0.5,0.6-1.2,0.6-2.2c0-0.9-0.2-1.7-0.6-2.2
					c-0.4-0.5-1-0.7-1.7-0.7s-1.3,0.2-1.7,0.7c-0.4,0.5-0.6,1.2-0.6,2.2c0,0.9,0.2,1.7,0.6,2.2C133.8,12.9,134.4,13.2,135.1,13.2z"
					/>
			</g>
			<g>
				<path class="st3" d="M115.7-0.3c-0.3,0-0.5-0.2-0.5-0.5v-6.6c0-0.3,0.2-0.5,0.5-0.5h2.5c0.8,0,1.4,0.2,1.8,0.5
					c0.4,0.3,0.6,0.8,0.6,1.5c0,0.4-0.1,0.8-0.3,1.1c-0.2,0.3-0.5,0.5-0.9,0.6c0.4,0.1,0.8,0.3,1,0.6c0.2,0.3,0.4,0.7,0.4,1.2
					c0,0.7-0.2,1.2-0.7,1.5c-0.4,0.4-1.1,0.5-1.8,0.5H115.7z M116.1-4.4h2c1.1,0,1.7-0.4,1.7-1.3c0-0.9-0.6-1.3-1.7-1.3h-2V-4.4z
					 M116.1-1h2.2c1.1,0,1.7-0.5,1.7-1.4s-0.6-1.4-1.7-1.4h-2.2V-1z"/>
				<path class="st3" d="M125.8-0.2c-0.8,0-1.5-0.2-2-0.7c-0.5-0.5-0.7-1.1-0.7-2c0-0.5,0.1-1,0.3-1.4c0.2-0.4,0.5-0.7,0.9-1
					c0.4-0.2,0.8-0.3,1.3-0.3c0.7,0,1.3,0.2,1.7,0.7c0.4,0.5,0.6,1.1,0.6,1.9c0,0.2-0.1,0.3-0.4,0.3h-3.6c0,0.6,0.2,1,0.5,1.4
					c0.3,0.3,0.8,0.5,1.3,0.5c0.2,0,0.5,0,0.7-0.1c0.2-0.1,0.5-0.2,0.7-0.3c0.2-0.1,0.3-0.1,0.4-0.1c0.1,0.1,0.2,0.2,0.2,0.3
					s-0.1,0.2-0.2,0.3c-0.2,0.2-0.5,0.3-0.8,0.4C126.4-0.2,126.1-0.2,125.8-0.2z M125.6-4.9c-0.5,0-0.9,0.2-1.2,0.5
					c-0.3,0.3-0.5,0.7-0.5,1.2h3.2c0-0.5-0.2-0.9-0.4-1.2C126.4-4.8,126.1-4.9,125.6-4.9z"/>
				<path class="st3" d="M132.3-0.2c-0.6,0-1.1-0.2-1.4-0.5c-0.3-0.3-0.5-0.8-0.5-1.4v-2.7h-0.7c-0.3,0-0.4-0.1-0.4-0.3
					c0-0.2,0.1-0.3,0.4-0.3h0.7v-1.2c0-0.3,0.1-0.4,0.4-0.4c0.3,0,0.4,0.1,0.4,0.4v1.2h1.4c0.3,0,0.4,0.1,0.4,0.3
					c0,0.2-0.1,0.3-0.4,0.3h-1.4v2.6c0,0.4,0.1,0.7,0.3,0.9s0.5,0.3,0.8,0.3c0.1,0,0.3,0,0.3,0c0.1,0,0.2,0,0.2,0
					c0.1,0,0.1,0,0.2,0.1c0,0.1,0.1,0.1,0.1,0.3c0,0.1,0,0.2,0,0.2c0,0.1-0.1,0.1-0.2,0.2c-0.1,0-0.2,0.1-0.3,0.1
					C132.5-0.2,132.4-0.2,132.3-0.2z"/>
				<path class="st3" d="M136.7-0.2c-0.4,0-0.7-0.1-1-0.2c-0.3-0.1-0.5-0.3-0.7-0.6c-0.2-0.2-0.2-0.5-0.2-0.8c0-0.4,0.1-0.7,0.3-0.9
					c0.2-0.2,0.5-0.4,1-0.5c0.5-0.1,1.1-0.1,1.9-0.1h0.3v-0.3c0-0.4-0.1-0.8-0.3-1c-0.2-0.2-0.5-0.3-0.9-0.3c-0.3,0-0.5,0-0.8,0.1
					c-0.3,0.1-0.5,0.2-0.8,0.3c-0.1,0.1-0.2,0.1-0.3,0c-0.1,0-0.1-0.1-0.2-0.2c0-0.1,0-0.2,0-0.3c0-0.1,0.1-0.2,0.2-0.2
					c0.3-0.2,0.6-0.3,0.9-0.3c0.3-0.1,0.6-0.1,0.9-0.1c0.7,0,1.2,0.2,1.5,0.5c0.3,0.3,0.5,0.8,0.5,1.5v2.9c0,0.3-0.1,0.5-0.4,0.5
					c-0.3,0-0.4-0.2-0.4-0.5v-0.5c-0.1,0.3-0.3,0.6-0.6,0.7C137.4-0.3,137-0.2,136.7-0.2z M136.8-0.8c0.4,0,0.8-0.1,1.1-0.4
					c0.3-0.3,0.4-0.7,0.4-1.1v-0.3h-0.3c-0.6,0-1,0-1.4,0.1c-0.3,0.1-0.6,0.1-0.7,0.3c-0.1,0.1-0.2,0.3-0.2,0.5
					c0,0.3,0.1,0.5,0.3,0.7C136.2-0.9,136.5-0.8,136.8-0.8z"/>
			</g>
		</g>
		<g>
			<path id="Path_4644_00000072979216081813826280000016363884750093655708_" class="st3" d="M18.8,19.9c-0.1,0-0.1,0-0.2,0
				c-0.2-0.1-0.3-0.3-0.3-0.5V5.8l-6.9,6.5c-0.2,0.2-0.5,0.2-0.7,0c-0.2-0.2-0.2-0.5,0-0.7l0,0l7.3-7l-7.4-7.4
				c-0.2-0.2-0.2-0.5,0-0.7c0.2-0.2,0.5-0.2,0.7,0l0,0l6.9,6.9V-9.8c0-0.3,0.2-0.5,0.5-0.5c0.1,0,0.3,0.1,0.4,0.2l7.3,7.4
				c0.2,0.2,0.2,0.5,0,0.7c0,0,0,0,0,0l-6.9,6.6l6.9,7c0.2,0.2,0.2,0.5,0,0.7l-7.3,7.5C19.1,19.9,18.9,19.9,18.8,19.9 M19.3,5.8
				v12.3l6.1-6.2L19.3,5.8z M19.3-8.5V3.4l6-5.7L19.3-8.5z"/>
			<path id="Path_4645_00000114793821598926263920000003243745464530678701_" class="st3" d="M11.1,9.2c-0.2,0-0.3-0.2-0.3-0.3
				c0,0,0,0,0,0v-9.6c0-0.2,0.2-0.3,0.3-0.3c0.1,0,0.2,0,0.3,0.1l4.1,5c0.1,0.1,0.1,0.3,0,0.5l-4.1,4.6C11.2,9.1,11.1,9.2,11.1,9.2
				 M11.4,0.2v7.7l3.3-3.7L11.4,0.2z"/>
			<path class="st3" d="M29.2,5.3C29.1,5.3,29.1,5.4,29.2,5.3c-0.4,0.2-0.8,0.3-1.1,0.4c0,0,0,0-0.1,0c0,0,0-0.1,0-0.1
				c0-1.6,0-3.2,0-4.9c0-0.1,0-0.1-0.1-0.1c-0.3,0-0.6,0-0.8,0c-0.1,0-0.2,0-0.2,0.2c0,1.6,0,3.2,0,4.8c0,0,0,0.1,0,0.1
				c0,0-0.1,0-0.1,0c-0.4-0.1-0.7-0.3-1.1-0.4c0,0-0.1,0-0.1,0c-0.1,0-0.1,0.1-0.1,0.1c0,0,0,0,0,0.1c0.6,0.7,1.1,1.5,1.7,2.2h0l0,0
				c0,0,0,0,0,0c0,0,0,0,0,0l0.1,0.1l0.1-0.1c0,0,0,0,0,0c0,0,0,0,0,0l0,0l0,0c0.6-0.7,1.2-1.5,1.7-2.2c0,0,0,0,0-0.1
				C29.3,5.4,29.2,5.3,29.2,5.3z"/>
			<path class="st3" d="M29.6,3.3C29.6,3.3,29.6,3.3,29.6,3.3C30,3.1,30.3,3,30.7,2.9c0,0,0,0,0.1,0c0,0,0,0.1,0,0.1
				c0,1.6,0,3.2,0,4.9c0,0.1,0,0.1,0.1,0.1c0.3,0,0.6,0,0.8,0c0.1,0,0.2,0,0.2-0.2c0-1.6,0-3.2,0-4.8c0,0,0-0.1,0-0.1
				c0,0,0.1,0,0.1,0c0.4,0.1,0.7,0.3,1.1,0.4c0,0,0.1,0,0.1,0c0.1,0,0.1-0.1,0.1-0.1c0,0,0,0,0-0.1c-0.6-0.7-1.1-1.5-1.7-2.2h0l0,0
				c0,0,0,0,0,0c0,0,0,0,0,0l-0.1-0.1l-0.1,0.1c0,0,0,0,0,0c0,0,0,0,0,0l0,0l0,0c-0.6,0.7-1.2,1.5-1.7,2.2c0,0,0,0,0,0.1
				C29.4,3.2,29.5,3.3,29.6,3.3z"/>
		</g>
	</g>
</g>
<g id="Layer_2" class="st0">
	<path class="st6" d="M-15.3-38.3h-28c-1.1,0-2-0.9-2-2v-28c0-1.1,0.9-2,2-2h28c1.1,0,2,0.9,2,2v28C-13.3-39.2-14.2-38.3-15.3-38.3z
		"/>
	<path class="st5" d="M-40.5-40.7V-65c0-0.8,0.3-1.5,0.8-2c0.6-0.6,1.2-0.9,2-0.9h3l11,18.7v-18.7h5.5v27.2h-5.8L-35-59.4v18.7
		H-40.5z"/>
	<text transform="matrix(1 0 0 1 42.1214 -34.4991)" class="st1"><tspan x="0" y="0" style="font-family:'Nunito-Bold'; font-size:25px;">W</tspan><tspan x="28.6" y="0" style="font-family:'Nunito-Bold'; font-size:25px; letter-spacing:-3;">Y</tspan><tspan x="40.5" y="0" style="font-family:'Nunito-Bold'; font-size:25px;">s</tspan><tspan x="53" y="0" style="font-family:'Nunito-Bold'; font-size:25px;">w</tspan><tspan x="74.1" y="0" style="font-family:'Nunito-Bold'; font-size:25px; letter-spacing:-1;">a</tspan><tspan x="86.7" y="0" style="font-family:'Nunito-Bold'; font-size:25px; letter-spacing:2;">p</tspan></text>
	<text transform="matrix(1 0 0 1 109.9965 -51.1225)" class="st1"><tspan x="0" y="0" style="font-family:'Nunito-Regular'; font-size:15px;">B</tspan><tspan x="9.8" y="0" style="font-family:'Nunito-Regular'; font-size:15px;">e</tspan><tspan x="17.8" y="0" style="font-family:'Nunito-Regular'; font-size:15px;">t</tspan><tspan x="23.4" y="0" style="font-family:'Nunito-Regular'; font-size:15px; letter-spacing:1;">a</tspan></text>
</g>
<g id="Layer_1" class="st0">
	<g class="st1">
		<g>
			<g>
				<path id="Path_4644" class="st3" d="M18.2-27.3c-0.1,0-0.2,0-0.3-0.1c-0.3-0.1-0.4-0.4-0.4-0.7v-19l-9.5,9.1
					c-0.3,0.3-0.7,0.3-1,0c-0.3-0.3-0.3-0.7,0-1l0,0l10.2-9.7L6.9-58.9c-0.3-0.3-0.3-0.7,0-1c0.3-0.3,0.7-0.3,1,0l0,0l9.5,9.6v-18.2
					c0-0.4,0.3-0.7,0.7-0.7c0.2,0,0.4,0.1,0.5,0.2l10.1,10.3c0.3,0.3,0.3,0.7,0,1c0,0,0,0,0,0l-9.6,9.2l9.6,9.7c0.3,0.3,0.3,0.7,0,1
					L18.7-27.5C18.6-27.4,18.4-27.3,18.2-27.3 M18.9-46.9v17.1l8.4-8.6L18.9-46.9z M18.9-66.8v16.5l8.4-8L18.9-66.8z"/>
				<path id="Path_4645" class="st3" d="M7.4-42.2c-0.3,0-0.5-0.2-0.5-0.5c0,0,0,0,0,0V-56c0-0.3,0.2-0.5,0.5-0.5
					c0.1,0,0.3,0.1,0.4,0.2l5.8,6.9c0.2,0.2,0.1,0.5,0,0.6l-5.8,6.4C7.7-42.3,7.6-42.2,7.4-42.2 M7.9-54.7v10.7l4.6-5.1L7.9-54.7z"
					/>
				<path class="st3" d="M32.6-47.6c0,0-0.1,0-0.1,0c-0.5,0.2-1,0.4-1.5,0.6c0,0-0.1,0-0.1,0c0-0.1,0-0.1,0-0.1c0-2.2,0-4.5,0-6.7
					c0-0.2,0-0.2-0.2-0.2c-0.4,0-0.8,0-1.2,0c-0.2,0-0.2,0-0.2,0.2c0,2.2,0,4.5,0,6.7c0,0,0,0.1,0,0.1c0,0-0.1,0-0.1,0
					c-0.5-0.2-1-0.4-1.5-0.6c0,0-0.1,0-0.1,0c-0.1,0-0.2,0.1-0.1,0.2c0,0,0,0.1,0.1,0.1c0.8,1,1.6,2.1,2.4,3.1h0l0,0c0,0,0,0,0,0
					c0,0,0,0,0,0l0.1,0.2l0.1-0.2c0,0,0,0,0,0c0,0,0,0,0,0l0,0l0,0c0.8-1,1.6-2.1,2.4-3.1c0,0,0,0,0-0.1
					C32.8-47.5,32.7-47.6,32.6-47.6z"/>
				<path class="st3" d="M33.2-50.4c0,0,0.1,0,0.1,0c0.5-0.2,1-0.4,1.5-0.6c0,0,0.1,0,0.1,0c0,0.1,0,0.1,0,0.1c0,2.2,0,4.5,0,6.7
					c0,0.2,0,0.2,0.2,0.2c0.4,0,0.8,0,1.2,0c0.2,0,0.2,0,0.2-0.2c0-2.2,0-4.5,0-6.7c0,0,0-0.1,0-0.1c0,0,0.1,0,0.1,0
					c0.5,0.2,1,0.4,1.5,0.6c0,0,0.1,0,0.1,0c0.1,0,0.2-0.1,0.1-0.2c0,0,0-0.1-0.1-0.1c-0.8-1-1.6-2.1-2.4-3.1h0l0,0c0,0,0,0,0,0
					c0,0,0,0,0,0L35.7-54l-0.1,0.2c0,0,0,0,0,0c0,0,0,0,0,0l0,0l0,0c-0.8,1-1.6,2.1-2.4,3.1c0,0,0,0,0,0.1
					C33-50.5,33.1-50.4,33.2-50.4z"/>
			</g>
		</g>
		<g>
			<g>
				<path class="st3" d="M50.2-36.9c-0.8,0-1.4-0.5-1.8-1.3L43.3-53c-0.2-0.5-0.1-1,0.1-1.3c0.3-0.4,0.7-0.6,1.3-0.6
					c0.5,0,0.8,0.1,1,0.3c0.2,0.2,0.5,0.5,0.6,1l4,11.9l4.2-11.9c0.3-0.9,0.9-1.3,1.6-1.3c0.4,0,0.7,0.1,1,0.3
					c0.2,0.2,0.4,0.6,0.6,1l4.1,12l4.1-12.1c0.2-0.4,0.3-0.8,0.6-1c0.2-0.2,0.6-0.3,1-0.3c0.5,0,0.9,0.2,1.2,0.6
					C69-54,69-53.5,68.8-53l-5.3,14.8c-0.2,0.5-0.4,0.8-0.7,1c-0.3,0.2-0.6,0.3-1.1,0.3c-0.5,0-0.8-0.1-1.1-0.3
					c-0.3-0.2-0.5-0.6-0.7-1L56-49.8l-4.1,11.6c-0.2,0.5-0.4,0.8-0.6,1C51-37,50.7-36.9,50.2-36.9z"/>
				<path class="st3" d="M78.4-36.9c-1.1,0-1.6-0.6-1.6-1.7v-6.6l-5.3-7.5c-0.2-0.3-0.3-0.6-0.3-1c0-0.3,0.2-0.6,0.4-0.9
					c0.2-0.2,0.6-0.4,1-0.4c0.7,0,1.2,0.3,1.7,1l4.1,5.8l4.1-5.8c0.3-0.4,0.5-0.6,0.8-0.8s0.6-0.2,0.9-0.2c0.7,0,1.1,0.2,1.3,0.7
					c0.2,0.5,0.1,1-0.3,1.5L80-45.1v6.6C80-37.4,79.5-36.9,78.4-36.9z"/>
				<path class="st3" d="M88.8-36.8c-0.7,0-1.5-0.1-2.3-0.2c-0.8-0.2-1.5-0.4-2.2-0.8c-0.3-0.2-0.6-0.4-0.6-0.7
					c-0.1-0.3-0.1-0.6,0-0.8c0.1-0.3,0.3-0.4,0.5-0.6c0.3-0.1,0.6-0.1,0.9,0.1c0.7,0.3,1.3,0.5,1.9,0.7c0.6,0.1,1.2,0.2,1.7,0.2
					c0.8,0,1.4-0.1,1.8-0.4c0.4-0.3,0.6-0.6,0.6-1.1c0-0.7-0.5-1.1-1.5-1.3l-2.5-0.5c-2.1-0.4-3.2-1.5-3.2-3.3
					c0-0.8,0.2-1.5,0.7-2.1c0.4-0.6,1.1-1,1.8-1.4c0.8-0.3,1.7-0.5,2.7-0.5c1.5,0,2.8,0.3,3.9,1c0.3,0.2,0.5,0.4,0.6,0.7
					c0.1,0.3,0,0.6-0.1,0.8c-0.1,0.3-0.3,0.4-0.6,0.5s-0.6,0.1-0.9-0.1c-0.5-0.3-1-0.5-1.5-0.6c-0.5-0.1-0.9-0.2-1.4-0.2
					c-0.8,0-1.4,0.1-1.8,0.4s-0.6,0.7-0.6,1.1c0,0.7,0.5,1.2,1.4,1.3l2.5,0.5c1.1,0.2,1.9,0.6,2.5,1.1s0.8,1.2,0.8,2.2
					c0,1.2-0.5,2.2-1.4,2.9S90.4-36.8,88.8-36.8z"/>
				<path class="st3" d="M101.5-36.9c-0.9,0-1.5-0.4-1.8-1.3L96-47.4c-0.2-0.6-0.2-1.1,0-1.5c0.2-0.4,0.7-0.6,1.3-0.6
					c0.4,0,0.7,0.1,0.9,0.3s0.4,0.5,0.6,1l2.8,7.5l2.8-7.7c0.3-0.7,0.7-1,1.4-1c0.7,0,1.2,0.3,1.4,1l2.8,7.8l2.8-7.7
					c0.2-0.5,0.4-0.8,0.6-0.9c0.3-0.2,0.5-0.2,0.9-0.2c0.6,0,1,0.2,1.2,0.6c0.2,0.4,0.2,0.9,0,1.4l-3.6,9.2c-0.3,0.9-1,1.3-1.8,1.3
					c-0.9,0-1.5-0.4-1.8-1.3l-2.6-6.8l-2.5,6.8C103-37.3,102.4-36.9,101.5-36.9z"/>
				<path class="st3" d="M121.8-36.8c-0.9,0-1.7-0.2-2.4-0.5c-0.7-0.3-1.2-0.8-1.6-1.4c-0.4-0.6-0.6-1.2-0.6-2
					c0-0.9,0.2-1.6,0.7-2.1c0.5-0.5,1.2-0.9,2.3-1.1s2.5-0.4,4.2-0.4h0.9v-0.5c0-0.8-0.2-1.4-0.6-1.8c-0.4-0.4-1-0.5-1.8-0.5
					c-0.5,0-1,0.1-1.6,0.2c-0.6,0.1-1.1,0.3-1.8,0.6c-0.4,0.2-0.7,0.2-1,0.1s-0.4-0.4-0.5-0.7c-0.1-0.3-0.1-0.6,0-0.9
					s0.4-0.6,0.8-0.7c0.8-0.3,1.5-0.5,2.2-0.7c0.7-0.1,1.4-0.2,1.9-0.2c1.8,0,3.1,0.4,4,1.2c0.9,0.8,1.3,2.1,1.3,3.8v6
					c0,1.1-0.5,1.6-1.5,1.6c-1,0-1.5-0.5-1.5-1.6V-39c-0.3,0.7-0.7,1.2-1.4,1.6C123.4-37,122.7-36.8,121.8-36.8z M122.5-39
					c0.8,0,1.5-0.3,2-0.9c0.5-0.6,0.8-1.3,0.8-2.1v-0.6h-0.9c-1.6,0-2.7,0.1-3.3,0.4c-0.6,0.2-0.9,0.7-0.9,1.3c0,0.5,0.2,1,0.6,1.3
					C121.3-39.1,121.8-39,122.5-39z"/>
				<path class="st3" d="M132-32.4c-1,0-1.5-0.5-1.5-1.6v-14c0-1,0.5-1.6,1.5-1.6c1,0,1.5,0.5,1.5,1.6v0.5c0.3-0.6,0.9-1.2,1.6-1.6
					c0.7-0.4,1.5-0.6,2.4-0.6c1.1,0,2,0.3,2.8,0.8c0.8,0.5,1.4,1.2,1.9,2.2c0.5,0.9,0.7,2.1,0.7,3.4c0,1.3-0.2,2.4-0.7,3.4
					c-0.5,1-1.1,1.7-1.9,2.2s-1.7,0.8-2.8,0.8c-0.9,0-1.6-0.2-2.3-0.6c-0.7-0.4-1.2-0.9-1.6-1.5v5C133.6-32.9,133.1-32.4,132-32.4z
					 M136.7-39.2c0.9,0,1.7-0.3,2.2-1c0.6-0.7,0.9-1.7,0.9-3c0-1.3-0.3-2.3-0.9-3s-1.3-1-2.2-1s-1.7,0.3-2.2,1s-0.8,1.7-0.8,3
					c0,1.3,0.3,2.3,0.8,3C135-39.5,135.7-39.2,136.7-39.2z"/>
			</g>
			<g>
				<path class="st3" d="M114.7-53.7c-0.5,0-0.7-0.2-0.7-0.7v-9.2c0-0.5,0.2-0.7,0.7-0.7h3.6c1.1,0,1.9,0.2,2.5,0.7
					c0.6,0.5,0.9,1.2,0.9,2c0,0.6-0.1,1.1-0.5,1.5c-0.3,0.4-0.7,0.7-1.2,0.9c0.6,0.2,1.1,0.5,1.4,0.9c0.3,0.4,0.5,1,0.5,1.6
					c0,0.9-0.3,1.7-0.9,2.2c-0.6,0.5-1.5,0.8-2.6,0.8H114.7z M115.2-59.5h2.9c1.6,0,2.4-0.6,2.4-1.9c0-1.2-0.8-1.9-2.4-1.9h-2.9
					V-59.5z M115.2-54.7h3.1c1.6,0,2.4-0.6,2.4-1.9s-0.8-1.9-2.4-1.9h-3.1V-54.7z"/>
				<path class="st3" d="M127-53.5c-1.1,0-2.1-0.3-2.7-1s-1-1.6-1-2.8c0-0.8,0.1-1.4,0.5-2c0.3-0.6,0.7-1,1.2-1.3
					c0.5-0.3,1.1-0.5,1.8-0.5c1,0,1.8,0.3,2.3,1c0.6,0.6,0.8,1.5,0.8,2.6c0,0.3-0.2,0.5-0.5,0.5h-5c0,0.8,0.3,1.5,0.7,1.9
					c0.4,0.4,1,0.7,1.8,0.7c0.3,0,0.7,0,1-0.1c0.3-0.1,0.7-0.2,1-0.5c0.2-0.2,0.4-0.2,0.6-0.1c0.2,0.1,0.2,0.2,0.2,0.4
					c0,0.2-0.1,0.3-0.3,0.5c-0.3,0.2-0.7,0.4-1.2,0.6S127.4-53.5,127-53.5z M126.8-60.2c-0.7,0-1.2,0.2-1.6,0.6
					c-0.4,0.4-0.6,1-0.7,1.7h4.4c0-0.7-0.2-1.3-0.6-1.7C127.9-60,127.4-60.2,126.8-60.2z"/>
				<path class="st3" d="M134.6-53.5c-0.9,0-1.5-0.2-1.9-0.7c-0.4-0.5-0.6-1.1-0.6-2V-60h-1c-0.3,0-0.5-0.2-0.5-0.5
					c0-0.3,0.2-0.5,0.5-0.5h1v-1.7c0-0.4,0.2-0.6,0.6-0.6c0.4,0,0.6,0.2,0.6,0.6v1.7h1.9c0.3,0,0.5,0.2,0.5,0.5
					c0,0.3-0.2,0.5-0.5,0.5h-1.9v3.7c0,0.6,0.1,1,0.4,1.3s0.6,0.4,1.2,0.4c0.2,0,0.4,0,0.5-0.1s0.2-0.1,0.3-0.1c0.1,0,0.2,0,0.2,0.1
					c0.1,0.1,0.1,0.2,0.1,0.4c0,0.1,0,0.2-0.1,0.3c0,0.1-0.1,0.2-0.2,0.2c-0.1,0-0.3,0.1-0.5,0.1C134.9-53.6,134.8-53.5,134.6-53.5z
					"/>
				<path class="st3" d="M139.5-53.5c-0.5,0-0.9-0.1-1.3-0.3c-0.4-0.2-0.7-0.5-0.9-0.8c-0.2-0.3-0.3-0.7-0.3-1.1
					c0-0.5,0.1-0.9,0.4-1.3c0.3-0.3,0.7-0.5,1.4-0.7c0.6-0.1,1.5-0.2,2.6-0.2h0.5v-0.5c0-0.6-0.1-1.1-0.4-1.3
					c-0.3-0.3-0.7-0.4-1.2-0.4c-0.3,0-0.7,0-1.1,0.1c-0.4,0.1-0.7,0.2-1.1,0.4c-0.2,0.1-0.3,0.1-0.4,0.1c-0.1-0.1-0.2-0.1-0.2-0.3
					c0-0.1,0-0.3,0-0.4c0-0.1,0.1-0.2,0.3-0.3c0.4-0.2,0.9-0.4,1.3-0.5c0.4-0.1,0.8-0.1,1.2-0.1c0.9,0,1.6,0.2,2.1,0.7
					s0.7,1.2,0.7,2.1v4.1c0,0.4-0.2,0.6-0.6,0.6c-0.4,0-0.6-0.2-0.6-0.6v-0.7c-0.2,0.4-0.5,0.8-0.9,1
					C140.5-53.7,140-53.5,139.5-53.5z M139.7-54.5c0.6,0,1.1-0.2,1.5-0.6s0.6-0.9,0.6-1.6v-0.5h-0.5c-0.8,0-1.4,0-1.9,0.1
					c-0.5,0.1-0.8,0.2-1,0.4c-0.2,0.2-0.3,0.4-0.3,0.8c0,0.4,0.1,0.7,0.4,1C138.8-54.6,139.2-54.5,139.7-54.5z"/>
			</g>
		</g>
	</g>
</g>
</svg>
